<svg width="300" height="300" viewBox="0 0 300 300" fill="none" xmlns="http://www.w3.org/2000/svg">
<path fill-rule="evenodd" clip-rule="evenodd" d="M175 75L175 25L275 25V75C275 75.0144 275 75.0288 275 75.0432C274.977 102.638 252.6 125 225 125C197.386 125 175 102.614 175 75ZM275 130.903C261.731 142.779 244.209 150 225 150C183.579 150 150 116.421 150 75L150 25L25 25L25 150C25 219.036 80.9644 275 150 275C219.036 275 275 219.036 275 150V130.903ZM300 75.0483V150C300 232.843 232.843 300 150 300C67.1573 300 2.03558e-05 232.843 1.31134e-05 150L0 3.81478e-05L150 1.31134e-05L300 0V75C300 75.0161 300 75.0322 300 75.0483Z" fill="black"/>
</svg>
