<svg width="495" height="495" viewBox="0 0 495 495" fill="none" xmlns="http://www.w3.org/2000/svg">
<rect width="495" height="495" fill="white"/>
<path d="M248 48C137.512 48 48 137.512 48 248C48 358.488 137.512 448 248 448C358.488 448 448 358.488 448 248C448 137.512 358.488 48 248 48ZM369.951 252.878C353.122 252.878 339.463 266.537 339.463 283.366V313.854H278.488H217.512H156.537V283.366C156.537 266.537 142.878 252.878 126.049 252.878V191.902H156.537H187.024V222.39H217.512V191.902H248H278.488V222.39H308.976V191.902H369.951V252.878Z" fill="#0C2053"/>
</svg>
