<svg width="180" height="135" viewBox="0 0 180 135" fill="none" xmlns="http://www.w3.org/2000/svg">
<path d="M154.953 77.4769C148.659 77.5124 143.209 79.0239 138.639 81.2744C136.951 77.9343 135.263 75.0157 134.982 72.8362C134.666 70.3047 134.279 68.7574 134.666 65.734C135.052 62.7099 136.81 58.4205 136.81 58.0689C136.775 57.7525 136.423 56.2055 132.802 56.1703C129.181 56.1352 126.052 56.8735 125.7 57.8228C125.348 58.7721 124.645 60.952 124.188 63.2022C123.555 66.5072 116.945 78.2152 113.183 84.3681C111.953 81.9773 110.898 79.8677 110.687 78.1797C110.371 75.6486 109.984 74.1012 110.371 71.0779C110.757 68.0538 112.515 63.7647 112.515 63.4131C112.48 63.0967 112.129 61.5497 108.508 61.5145C104.886 61.4794 101.757 62.2177 101.405 63.167C101.054 64.1163 100.667 66.3665 99.8935 68.5464C99.1548 70.7263 90.365 90.2749 88.0796 95.373C86.9193 97.9747 85.9001 100.049 85.1614 101.456C84.423 102.862 85.1262 101.561 85.0559 101.702C84.423 102.897 84.0714 103.565 84.0714 103.565V103.601C83.5792 104.48 83.0518 105.323 82.8054 105.323C82.6296 105.323 82.278 102.967 82.8757 99.7331C84.1766 92.947 87.3409 82.3644 87.3061 81.9776C87.3061 81.8018 87.9035 79.938 85.2665 78.9891C82.6999 78.0398 81.7861 79.6219 81.5748 79.6219C81.3638 79.6219 81.188 80.1845 81.188 80.1845C81.188 80.1845 84.0359 68.2658 75.7383 68.2658C70.5347 68.2658 63.3622 73.9265 59.8112 79.0949C57.561 80.3255 52.7793 82.9269 47.7164 85.7048C45.7826 86.7596 43.7785 87.8847 41.8799 88.9043L41.4935 88.4817C31.4379 77.7581 12.8387 70.1637 13.6122 55.7484C13.8934 50.5097 15.7217 36.6921 49.3344 19.9562C76.8641 6.24408 98.909 10.0061 102.741 18.374C108.191 30.3282 90.9627 52.5489 62.3433 55.7484C51.4439 56.979 45.7126 52.7599 44.2714 51.1777C42.7596 49.5252 42.5486 49.4549 41.9861 49.7713C41.0719 50.2635 41.6345 51.7402 41.9861 52.6192C42.8299 54.8343 46.3458 58.7721 52.3229 60.741C57.5613 62.4638 70.3597 63.4131 85.8298 57.4361C103.163 50.7206 116.7 32.0862 112.727 16.5106C108.683 0.65375 82.3841 -4.54983 57.5265 4.27516C42.7241 9.54906 26.6914 17.7763 15.1592 28.5702C1.44704 41.3682 -0.732838 52.5489 0.181304 57.1899C3.38115 73.75 26.1992 84.5439 35.3406 92.5251C34.8836 92.7708 34.4616 93.0169 34.0749 93.2282C29.5042 95.4781 12.1003 104.585 7.74056 114.218C2.81825 125.117 8.51406 132.958 12.3113 134.013C24.0545 137.283 36.079 131.411 42.5834 121.742C49.0524 112.074 48.2793 99.5218 45.2907 93.7908L45.1849 93.5798L48.7711 91.4703C51.092 90.0991 53.3774 88.8333 55.3811 87.743C54.2563 90.8019 53.4473 94.4233 53.0258 99.6972C52.5335 105.886 55.065 113.902 58.4051 117.066C59.8818 118.437 61.6398 118.472 62.7297 118.472C66.5973 118.472 68.3552 115.272 70.289 111.44C72.6798 106.764 74.7894 101.35 74.7894 101.35C74.7894 101.35 72.1524 116.011 79.3601 116.011C81.997 116.011 84.634 112.601 85.8294 110.843V110.878C85.8294 110.878 85.8997 110.772 86.0404 110.526C86.1879 110.308 86.3286 110.085 86.4623 109.859V109.788C87.5171 107.96 89.8727 103.776 93.3887 96.8497C97.9239 87.9192 102.284 76.7385 102.284 76.7385C102.284 76.7385 102.706 79.4809 104.007 83.9813C104.78 86.6538 106.468 89.5717 107.768 92.4196C106.714 93.8963 106.081 94.7404 106.081 94.7404L106.116 94.7756C105.273 95.9007 104.323 97.0965 103.339 98.2915C99.7525 102.581 95.4631 107.468 94.9005 108.875C94.2325 110.527 94.3731 111.758 95.674 112.742C96.6233 113.446 98.311 113.586 100.104 113.446C103.339 113.234 105.589 112.426 106.714 111.933C108.472 111.3 110.476 110.351 112.41 108.945C115.926 106.343 118.071 102.652 117.86 97.7293C117.754 95.0221 116.875 92.35 115.785 89.8185C116.102 89.3614 116.418 88.904 116.734 88.4121C122.29 80.29 126.579 71.3598 126.579 71.3598C126.579 71.3598 127.001 74.1023 128.302 78.6027C128.97 80.888 130.306 83.3847 131.501 85.8458C126.298 90.1001 123.028 95.0224 121.903 98.2571C119.828 104.234 121.446 106.941 124.505 107.574C125.876 107.856 127.845 107.223 129.321 106.59C131.149 105.992 133.364 104.972 135.404 103.461C138.92 100.859 142.295 97.2375 142.119 92.3503C142.014 90.1001 141.416 87.8851 140.608 85.7755C145.038 83.9472 150.768 82.8925 158.047 83.7714C173.693 85.5997 176.787 95.374 176.189 99.4525C175.592 103.531 172.322 105.781 171.231 106.484C170.141 107.152 169.79 107.399 169.895 107.891C170.036 108.629 170.528 108.594 171.478 108.454C172.778 108.242 179.705 105.113 179.986 97.5898C180.408 87.9195 171.231 77.3717 154.953 77.4769V77.4769ZM34.2858 118.156C29.1174 123.817 21.8394 125.962 18.7454 124.133C15.4053 122.2 16.7058 113.867 23.07 107.855C26.9375 104.198 31.9653 100.823 35.2703 98.7483C36.0086 98.2912 37.1337 97.6235 38.4698 96.8145C38.6808 96.6742 38.8214 96.6035 38.8214 96.6035C39.0675 96.4629 39.3488 96.2871 39.6301 96.1113C41.9857 104.69 39.7355 112.214 34.2858 118.156V118.156ZM72.0821 92.4547C70.289 96.8497 66.4918 108.136 64.2064 107.503C62.2372 106.976 61.0421 98.4318 63.8193 89.9936C65.2257 85.739 68.2142 80.6764 69.9722 78.7071C72.8205 75.5427 75.9141 74.488 76.688 75.7889C77.6021 77.4769 73.2072 89.7123 72.0821 92.4547ZM103.268 107.362C102.495 107.749 101.792 108.03 101.475 107.82C101.229 107.679 101.791 107.152 101.791 107.152C101.791 107.152 105.694 102.968 107.241 101.034C108.12 99.9092 109.175 98.6083 110.3 97.1313V97.5532C110.3 102.616 105.448 105.991 103.268 107.362ZM127.317 101.877C126.754 101.456 126.825 100.155 128.723 96.0761C129.462 94.4588 131.149 91.7515 134.068 89.1849C134.419 90.2397 134.631 91.259 134.595 92.2086C134.56 98.5373 130.06 100.893 127.317 101.877Z" fill="#CF649A"/>
</svg>
