<svg width="498" height="315" viewBox="0 0 498 315" fill="none" xmlns="http://www.w3.org/2000/svg">
<circle cx="65" cy="80.2256" r="65" fill="#000622"/>
<rect x="34.5" y="51.5" width="223" height="223" rx="30.5" fill="url(#paint0_linear)" stroke="url(#paint1_linear)" stroke-width="3"/>
<rect x="368.5" y="237.394" width="154" height="154" rx="77" transform="rotate(-135 368.5 237.394)" fill="url(#paint2_linear)" stroke="url(#paint3_linear)" stroke-width="3"/>
<rect x="223.5" y="165.726" width="147" height="147" rx="30.5" fill="url(#paint4_linear)" stroke="url(#paint5_linear)" stroke-width="3"/>
<rect x="256" y="164.226" width="3" height="4" fill="#F395C4"/>
<path d="M299.699 286.226H302.443V283.482H299.699V286.226ZM312.328 286.646C315.45 286.646 317.732 285.12 318.796 282.292L316.276 281.634C315.59 283.356 314.288 284.28 312.328 284.28C309.318 284.28 307.792 282.04 307.764 278.666C307.792 275.39 309.22 273.052 312.328 273.052C314.162 273.052 315.688 274.074 316.332 275.824L318.796 275.082C317.998 272.366 315.534 270.686 312.356 270.686C307.806 270.686 305.16 273.948 305.118 278.666C305.16 283.3 307.722 286.646 312.328 286.646ZM326.525 286.632C330.291 286.632 332.573 284.868 332.573 281.942C332.573 279.604 331.271 278.484 327.281 277.462C323.725 276.566 322.955 276.09 322.955 274.984C322.955 273.696 324.299 272.856 326.259 272.912C328.317 272.968 329.717 273.962 329.969 275.572L332.517 275.11C332.195 272.45 329.703 270.686 326.259 270.686C322.773 270.686 320.449 272.45 320.449 275.11C320.449 277.28 321.723 278.316 325.727 279.38C329.423 280.374 329.997 280.738 329.997 282.012C329.997 283.496 328.737 284.406 326.679 284.406C324.495 284.406 322.927 283.384 322.521 281.732L319.973 282.138C320.491 284.98 322.913 286.632 326.525 286.632ZM340.533 286.632C344.299 286.632 346.581 284.868 346.581 281.942C346.581 279.604 345.279 278.484 341.289 277.462C337.733 276.566 336.963 276.09 336.963 274.984C336.963 273.696 338.307 272.856 340.267 272.912C342.325 272.968 343.725 273.962 343.977 275.572L346.525 275.11C346.203 272.45 343.711 270.686 340.267 270.686C336.781 270.686 334.457 272.45 334.457 275.11C334.457 277.28 335.731 278.316 339.735 279.38C343.431 280.374 344.005 280.738 344.005 282.012C344.005 283.496 342.745 284.406 340.687 284.406C338.503 284.406 336.935 283.384 336.529 281.732L333.981 282.138C334.499 284.98 336.921 286.632 340.533 286.632Z" fill="#E0FFA4"/>
<path d="M54.1954 91.2256H56.9394V88.4816H54.1954V91.2256ZM66.1663 91.6316C69.9323 91.6316 72.2143 89.8676 72.2143 86.9416C72.2143 84.6036 70.9123 83.4836 66.9223 82.4616C63.3663 81.5656 62.5963 81.0896 62.5963 79.9836C62.5963 78.6956 63.9403 77.8556 65.9003 77.9116C67.9583 77.9676 69.3583 78.9616 69.6103 80.5716L72.1583 80.1096C71.8363 77.4496 69.3443 75.6856 65.9003 75.6856C62.4143 75.6856 60.0903 77.4496 60.0903 80.1096C60.0903 82.2796 61.3643 83.3156 65.3683 84.3796C69.0643 85.3736 69.6383 85.7376 69.6383 87.0116C69.6383 88.4956 68.3783 89.4056 66.3203 89.4056C64.1363 89.4056 62.5683 88.3836 62.1623 86.7316L59.6143 87.1376C60.1323 89.9796 62.5543 91.6316 66.1663 91.6316ZM80.832 91.6456C83.954 91.6456 86.236 90.1196 87.3 87.2916L84.78 86.6336C84.094 88.3556 82.792 89.2796 80.832 89.2796C77.822 89.2796 76.296 87.0396 76.268 83.6656C76.296 80.3896 77.724 78.0516 80.832 78.0516C82.666 78.0516 84.192 79.0736 84.836 80.8236L87.3 80.0816C86.502 77.3656 84.038 75.6856 80.86 75.6856C76.31 75.6856 73.664 78.9476 73.622 83.6656C73.664 88.2996 76.226 91.6456 80.832 91.6456ZM95.0293 91.6316C98.7953 91.6316 101.077 89.8676 101.077 86.9416C101.077 84.6036 99.7753 83.4836 95.7853 82.4616C92.2293 81.5656 91.4593 81.0896 91.4593 79.9836C91.4593 78.6956 92.8033 77.8556 94.7633 77.9116C96.8213 77.9676 98.2213 78.9616 98.4733 80.5716L101.021 80.1096C100.699 77.4496 98.2073 75.6856 94.7633 75.6856C91.2773 75.6856 88.9533 77.4496 88.9533 80.1096C88.9533 82.2796 90.2273 83.3156 94.2313 84.3796C97.9273 85.3736 98.5013 85.7376 98.5013 87.0116C98.5013 88.4956 97.2413 89.4056 95.1833 89.4056C92.9993 89.4056 91.4313 88.3836 91.0253 86.7316L88.4773 87.1376C88.9953 89.9796 91.4173 91.6316 95.0293 91.6316ZM109.037 91.6316C112.803 91.6316 115.085 89.8676 115.085 86.9416C115.085 84.6036 113.783 83.4836 109.793 82.4616C106.237 81.5656 105.467 81.0896 105.467 79.9836C105.467 78.6956 106.811 77.8556 108.771 77.9116C110.829 77.9676 112.229 78.9616 112.481 80.5716L115.029 80.1096C114.707 77.4496 112.215 75.6856 108.771 75.6856C105.285 75.6856 102.961 77.4496 102.961 80.1096C102.961 82.2796 104.235 83.3156 108.239 84.3796C111.935 85.3736 112.509 85.7376 112.509 87.0116C112.509 88.4956 111.249 89.4056 109.191 89.4056C107.007 89.4056 105.439 88.3836 105.033 86.7316L102.485 87.1376C103.003 89.9796 105.425 91.6316 109.037 91.6316Z" fill="#FD8C96"/>
<circle cx="34.5" cy="190.726" r="6.5" fill="#F593BA"/>
<circle cx="256.5" cy="109.726" r="6.5" fill="#F593BA"/>
<g style="mix-blend-mode:difference">
<circle cx="65" cy="80.2256" r="65" fill="#FFBABA"/>
</g>
<g style="mix-blend-mode:difference">
<rect x="439.443" y="191.642" width="189.036" height="81.9864" transform="rotate(-135 439.443 191.642)" fill="#000622"/>
</g>
<path d="M358.922 94.596L361.129 94.6059L361.07 87.3793L368.297 87.4387L368.287 85.2311L358.922 85.2311L358.922 94.596ZM379.128 95.9735C377.584 94.4291 375.762 93.7956 373.911 94.0629L378.851 89.123L377.267 87.5391L363.012 101.794L364.794 103.576L370.426 97.9435C372.901 95.4686 375.257 95.4488 377.029 97.2208C379.286 99.4779 378 102.052 375.99 104.061L370.634 109.417L372.416 111.199L378.326 105.289C380.356 103.259 382.573 99.4185 379.128 95.9735ZM386.374 106.685L389.602 109.912L391.057 108.457L387.83 105.229L390.799 102.259L389.037 100.497L386.067 103.467L383.899 101.299L382.444 102.754L384.612 104.922L379.415 110.12C378.306 111.228 377.435 111.981 377.029 113.238C376.316 115.436 378.069 117.624 380.365 119.148L381.88 117.633C380.187 116.396 379.177 115.267 379.554 113.941C379.742 113.238 380.375 112.684 381.256 111.803L386.374 106.685ZM403.869 120.715C402.464 119.309 400.603 118.774 398.87 119.24C399.415 117.547 398.959 115.805 397.514 114.359C396.237 113.082 394.603 112.538 393.059 112.736L394.198 111.597L392.624 110.023L381.932 120.715L383.704 122.487L390.495 115.696C392.059 114.132 394.029 114.023 395.425 115.419C396.821 116.814 396.742 118.735 395.118 120.358L388.337 127.12L390.089 128.872L396.89 122.091C398.692 120.289 400.632 120.626 401.83 121.824C403.176 123.17 403.166 125.08 401.573 126.674L394.722 133.505L396.484 135.267L403.721 128.05C405.998 125.773 406.097 122.942 403.869 120.715ZM398.677 137.459L400.439 139.222L414.991 124.669L413.229 122.907L398.677 137.459ZM407.844 143.518L417.209 143.518L417.209 134.153L415.001 134.144L415.061 141.37L407.834 141.311L407.844 143.518Z" fill="#BFCBFF"/>
<g style="mix-blend-mode:difference">
<rect x="439.443" y="191.642" width="189.036" height="81.9864" transform="rotate(-135 439.443 191.642)" fill="#CCF6FF"/>
</g>
<defs>
<linearGradient id="paint0_linear" x1="146" y1="50" x2="146" y2="276" gradientUnits="userSpaceOnUse">
<stop stop-color="#FFD0D0" stop-opacity="0"/>
<stop offset="1" stop-color="#FF7E7E" stop-opacity="0.26"/>
</linearGradient>
<linearGradient id="paint1_linear" x1="146" y1="50" x2="146" y2="276" gradientUnits="userSpaceOnUse">
<stop stop-color="#FF8A8A"/>
<stop offset="1" stop-color="#E69FFF"/>
</linearGradient>
<linearGradient id="paint2_linear" x1="447" y1="239.516" x2="447" y2="396.516" gradientUnits="userSpaceOnUse">
<stop stop-color="#97E6FF" stop-opacity="0.56"/>
<stop offset="1" stop-color="#7DE0FF" stop-opacity="0"/>
</linearGradient>
<linearGradient id="paint3_linear" x1="447" y1="239.516" x2="447" y2="396.516" gradientUnits="userSpaceOnUse">
<stop stop-color="#8A8FFF"/>
<stop offset="1" stop-color="#9FC0FF"/>
</linearGradient>
<linearGradient id="paint4_linear" x1="297" y1="164.226" x2="297" y2="314.226" gradientUnits="userSpaceOnUse">
<stop stop-color="#B6FFB5" stop-opacity="0.43"/>
<stop offset="1" stop-color="#8CFFE3" stop-opacity="0"/>
</linearGradient>
<linearGradient id="paint5_linear" x1="297" y1="164.226" x2="297" y2="314.226" gradientUnits="userSpaceOnUse">
<stop stop-color="#8AFFB9"/>
<stop offset="1" stop-color="#F2FF9F"/>
</linearGradient>
</defs>
</svg>
